<svg xmlns="http://www.w3.org/2000/svg" xmlns:xlink="http://www.w3.org/1999/xlink" xmlns:serif="http://www.serif.com/" viewBox="0 0 100 125" version="1.1" xml:space="preserve" style="" x="0px" y="0px" fill-rule="evenodd" clip-rule="evenodd" stroke-linejoin="round" stroke-miterlimit="2"><rect serif:id="05 - verified" x="0" y="0" width="100" height="100" style="" fill="none"/><path d="M29.207,12.551c5.711,0.878 11.499,-1.003 15.603,-5.07c1.626,-1.607 3.372,-2.481 5.19,-2.481c1.467,0 2.887,0.569 4.235,1.633c0.339,0.268 0.673,0.567 1.002,0.896c4.098,4.011 9.848,5.853 15.513,4.968c2.284,-0.294 4.223,0.024 5.7,1.097c1.471,1.069 2.37,2.802 2.74,5.058c0.93,5.703 4.508,10.627 9.644,13.273c2.031,1.05 3.402,2.441 3.964,4.169c0.561,1.729 0.27,3.66 -0.757,5.703c-2.6,5.16 -2.599,11.246 0.001,16.406c1.026,2.043 1.317,3.974 0.756,5.703c-0.562,1.728 -1.933,3.119 -3.964,4.169c-5.136,2.646 -8.714,7.57 -9.643,13.273c-0.371,2.256 -1.27,3.989 -2.741,5.058c-1.47,1.068 -3.396,1.388 -5.657,1.043c-5.711,-0.878 -11.499,1.003 -15.603,5.07c-1.626,1.607 -3.372,2.481 -5.19,2.481c-1.818,-0 -3.564,-0.874 -5.19,-2.482c-4.104,-4.067 -9.892,-5.947 -15.603,-5.069c-2.261,0.345 -4.187,0.025 -5.657,-1.043c-1.471,-1.069 -2.37,-2.802 -2.74,-5.058c-0.93,-5.703 -4.508,-10.627 -9.644,-13.273c-2.031,-1.05 -3.402,-2.441 -3.964,-4.169c-0.561,-1.729 -0.27,-3.66 0.757,-5.703c2.6,-5.16 2.599,-11.246 -0.001,-16.406c-1.026,-2.043 -1.317,-3.974 -0.756,-5.703c0.562,-1.728 1.933,-3.119 3.964,-4.169c5.136,-2.646 8.714,-7.57 9.643,-13.273c0.371,-2.256 1.27,-3.989 2.741,-5.058c1.47,-1.068 3.396,-1.388 5.657,-1.043Zm16.3,39.899c-0.149,0.149 -0.39,0.149 -0.539,0c-1.38,-1.38 -7.643,-7.643 -9.023,-9.022c-0.149,-0.149 -0.39,-0.149 -0.539,-0c-1.093,1.093 -5.191,5.191 -6.284,6.284c-0.149,0.149 -0.149,0.39 -0,0.539c1.951,1.951 13.895,13.895 15.846,15.846c0.149,0.149 0.39,0.149 0.539,0c2.575,-2.575 22.796,-22.795 25.371,-25.371c0.149,-0.149 0.149,-0.39 0,-0.539c-1.093,-1.093 -5.191,-5.191 -6.284,-6.284c-0.149,-0.149 -0.39,-0.149 -0.539,-0c-2.144,2.143 -16.404,16.404 -18.548,18.547Z" style="" fill="#2196F3"/></svg>